<?xml version="1.0" standalone="no"?>
<!DOCTYPE svg PUBLIC "-//W3C//DTD SVG 20010904//EN"
 "http://www.w3.org/TR/2001/REC-SVG-20010904/DTD/svg10.dtd">
<svg version="1.0" xmlns="http://www.w3.org/2000/svg"
 width="512.000000pt" height="512.000000pt" viewBox="0 0 512.000000 512.000000"
 preserveAspectRatio="xMidYMid meet">
<metadata>
Created by potrace 1.14, written by Peter Selinger 2001-2017
</metadata>
<g transform="translate(0.000000,512.000000) scale(0.100000,-0.100000)"
fill="#000000" stroke="none">
<path d="M1636 4751 c-65 -43 -66 -46 -66 -363 l0 -288 145 0 146 0 -3 296 -3
295 -42 40 c-38 35 -47 39 -95 39 -35 0 -63 -7 -82 -19z"/>
<path d="M2199 4747 c-66 -44 -69 -59 -69 -370 l0 -278 148 3 147 3 3 268 c2
248 1 272 -17 312 -36 82 -138 112 -212 62z"/>
<path d="M2766 4751 c-65 -43 -66 -46 -66 -363 l0 -288 145 0 145 0 0 280 c0
308 -1 314 -60 364 -40 33 -119 36 -164 7z"/>
<path d="M3329 4747 c-66 -44 -69 -59 -69 -369 l0 -278 150 0 150 0 0 273 c0
247 -2 276 -20 314 -36 80 -138 109 -211 60z"/>
<path d="M1443 3956 c-103 -33 -185 -106 -232 -205 l-26 -56 0 -1110 0 -1110
28 -57 c36 -74 128 -159 204 -190 l58 -23 1050 -3 c758 -2 1067 0 1110 8 159
31 274 146 305 305 8 43 10 352 8 1110 l-3 1050 -23 57 c-33 81 -108 160 -190
200 l-67 33 -1090 2 c-882 1 -1098 -1 -1132 -11z"/>
<path d="M453 3564 c-95 -47 -99 -194 -7 -255 27 -17 52 -19 317 -19 l287 0 0
145 0 145 -282 0 c-239 0 -288 -3 -315 -16z"/>
<path d="M4080 3435 l0 -145 280 0 c314 0 320 1 365 67 47 70 21 169 -55 208
-24 12 -79 15 -310 15 l-280 0 0 -145z"/>
<path d="M474 3009 c-18 -5 -46 -25 -63 -44 -27 -31 -31 -43 -31 -95 0 -49 4
-64 27 -91 48 -56 65 -59 368 -59 l275 0 0 150 0 150 -272 -1 c-150 0 -287 -5
-304 -10z"/>
<path d="M4080 2870 l0 -151 284 3 c271 3 286 4 313 24 43 32 73 82 73 124 0
42 -30 92 -73 124 -27 20 -42 21 -313 24 l-284 3 0 -151z"/>
<path d="M453 2434 c-98 -49 -97 -211 1 -258 29 -14 78 -16 315 -16 l281 0 0
145 0 145 -282 0 c-239 0 -288 -3 -315 -16z"/>
<path d="M4080 2305 l0 -145 280 0 c314 0 320 1 365 67 47 70 21 169 -55 208
-24 12 -79 15 -310 15 l-280 0 0 -145z"/>
<path d="M465 1876 c-17 -7 -43 -28 -58 -45 -23 -27 -27 -42 -27 -91 0 -52 4
-64 31 -94 17 -20 47 -40 67 -46 21 -5 154 -10 305 -10 l267 0 0 150 0 150
-277 0 c-209 -1 -286 -4 -308 -14z"/>
<path d="M4080 1740 l0 -151 284 3 c271 3 286 4 313 24 43 32 73 82 73 124 0
42 -30 92 -73 124 -27 20 -42 21 -313 24 l-284 3 0 -151z"/>
<path d="M1570 788 c0 -265 1 -285 20 -316 44 -72 134 -93 203 -47 66 45 67
51 67 365 l0 280 -145 0 -145 0 0 -282z"/>
<path d="M2130 794 c0 -263 1 -278 21 -314 25 -45 83 -80 131 -80 39 0 91 31
122 73 20 27 21 42 24 313 l3 284 -150 0 -151 0 0 -276z"/>
<path d="M2700 788 c0 -265 1 -285 20 -316 44 -72 134 -93 203 -47 66 45 67
51 67 365 l0 280 -145 0 -145 0 0 -282z"/>
<path d="M3260 795 c0 -314 3 -331 78 -373 71 -40 143 -21 196 51 20 27 21 42
24 313 l3 284 -150 0 -151 0 0 -275z"/>
</g>
</svg>
